<?xml version="1.0"?>
<svg xmlns="http://www.w3.org/2000/svg" width="268.215" height="91.804" viewBox="0 0 268.215 91.804"><path fill="#ffffff" d="M13.652 70.854l4.767 11.053H8.921l4.731-11.053zm-2.275-4.693L0 91.443h4.839l2.493-5.851h12.641l2.528 5.851h4.912L16 66.161h-4.623zM41.103 78.802c0-7.549 5.779-13.001 13.544-13.001 4.118 0 7.657 1.479 10.005 4.225l-3.034 2.854c-1.842-1.987-4.118-2.963-6.754-2.963-5.237 0-9.029 3.684-9.029 8.885 0 5.2 3.792 8.885 9.029 8.885 2.636 0 4.912-.976 6.754-2.997l3.034 2.889c-2.348 2.745-5.887 4.226-10.041 4.226-7.73-.001-13.508-5.454-13.508-13.003M97.664 85.593H85.022l-2.492 5.851h-4.839L89.069 66.16h4.623l11.412 25.283h-4.912l-2.528-5.85zm-1.553-3.686l-4.768-11.052-4.731 11.052h9.499zM120.961 66.161h11.052c8.198 0 13.797 5.057 13.797 12.641s-5.599 12.641-13.797 12.641h-11.052V66.161zm10.835 21.309c5.635 0 9.282-3.431 9.282-8.668s-3.647-8.668-9.282-8.668h-6.14V87.47h6.14zM182.397 87.507v3.936h-18.961V66.16h18.456v3.938h-13.761v6.574h12.208v3.863h-12.208v6.972zM223.5 91.443l-.036-16.759-8.307 13.869h-2.095l-8.307-13.652v16.542h-4.478V66.161h3.865l10.04 16.758 9.86-16.758h3.865l.034 25.282zM258.318 82.521v8.922h-4.694v-8.849l-9.933-16.433h5.021l7.404 12.317 7.476-12.317h4.623z"></path><path fill="#FFFFFF" d="M89.984 24.518c-1.739-.956-3.476-1.433-5.211-1.433-1.751 0-3.502.498-5.26 1.494s-3.11 2.368-4.058 4.118c-.949 1.75-1.422 3.645-1.422 5.686 0 1.895.464 3.705 1.398 5.432.93 1.725 2.267 3.083 4.011 4.08 1.74.995 3.524 1.496 5.356 1.496s3.595-.482 5.298-1.446c1.699-.967 3.032-2.323 3.998-4.071.961-1.747 1.443-3.652 1.443-5.709 0-2.09-.489-3.981-1.467-5.674-.983-1.695-2.346-3.018-4.086-3.973"></path><path fill="#FFFFFF" d="M106.33 0H8.539C3.83 0 0 3.83 0 8.538v41.85c0 4.707 3.83 8.535 8.539 8.535h97.792c4.709 0 8.54-3.828 8.54-8.535V8.538C114.869 3.829 111.037 0 106.33 0M21.62 47.867h-3.475V20.653h3.475v27.214zm0-30.568h-3.475v-6.268h3.475v6.268zm30.423 30.568h-3.476V32.898c0-2.185-.395-4.029-1.177-5.527-.786-1.497-1.868-2.588-3.245-3.268-1.378-.682-2.746-1.02-4.107-1.02-1.442 0-2.864.376-4.264 1.129-1.4.755-2.45 1.86-3.148 3.317-.695 1.475-1.045 3.265-1.045 5.37v14.968h-3.473V20.652h3.473v3.475h.098c1.894-2.785 4.771-4.179 8.626-4.179 1.832 0 3.487.333 4.97.998a11.619 11.619 0 0 1 3.899 2.842c.73.826 1.33 1.87 1.799 3.135.712 1.846 1.07 3.839 1.07 5.975v14.969zm8.359 0V23.788h-4.228v-3.136h4.228c.063-1.944.266-3.482.606-4.616a7.14 7.14 0 0 1 1.762-2.977c.834-.851 1.897-1.495 3.195-1.931 1.297-.436 2.925-.679 4.884-.73v3.233c-1.878.032-3.321.325-4.326.875a4.747 4.747 0 0 0-2.163 2.429c-.324.763-.486 2.002-.486 3.718h6.974v3.136h-6.974v24.078h-3.472zm36.703-6.584c-1.272 2.285-3.029 4.062-5.272 5.335-2.246 1.271-4.597 1.906-7.06 1.906-1.751 0-3.422-.308-5.018-.924a13.792 13.792 0 0 1-4.241-2.564c-1.232-1.091-2.188-2.207-2.867-3.34a14.931 14.931 0 0 1-1.556-3.559 13.386 13.386 0 0 1-.535-3.705c0-2.043.373-3.938 1.118-5.688.744-1.75 1.734-3.24 2.965-4.471a14.801 14.801 0 0 1 4.082-2.916 13.68 13.68 0 0 1 6.075-1.408c2.43 0 4.767.636 7.01 1.907 2.244 1.271 4.004 3.049 5.285 5.334 1.281 2.282 1.919 4.633 1.919 7.046.001 2.415-.634 4.764-1.905 7.047M121.69 34.815h9.442c0 4.264 4.263 4.972 6.396 5.075 1.776 0 4.313-.406 4.313-2.539 0-3.958-19.491-2.283-19.491-15.225 0-7.511 7.109-10.911 12.081-10.911 4.261 0 8.577 1.369 10.608 5.177l.504-4.264h8.73v12.738h-9.187c0-3.756-2.943-5.887-6.495-5.887-1.472 0-3.501.914-3.501 2.69 0 5.228 20.099 4.009 20.099 15.938 0 7.917-7.411 10.761-13.45 10.761-5.124 0-8.681-2.387-10.606-4.672l-.559 3.908h-8.882V34.815h-.002zM157.725 47.604v-6.648h2.133v-24.82h-2.133V9.54h12.282v15.836c.559-.915 4.265-4.062 7.969-4.062 7.869 0 8.884 5.836 8.884 11.165v8.477h2.384v6.648H176.2V33.8c0-1.727 0-4.721-2.995-4.721-2.589 0-3.198 2.539-3.198 4.721v7.156h3.654v6.648h-15.936zM191.831 24.36c2.031-1.218 6.396-3.604 11.065-3.604 6.091 0 13.754 2.284 13.754 10.456v9.895h3.045v6.496h-10.862l-1.215-2.282c-1.879 2.589-5.025 3.25-6.854 3.25-4.821 0-9.999-2.59-9.999-8.479 0-5.735 4.823-9.338 10.558-9.338 2.994 0 4.771 1.47 5.024 1.774v-1.774c0-2.284-2.081-2.844-4.822-2.844-2.994 0-5.635 1.269-7.563 2.334l-2.131-5.884zm14.517 14.008c-.152-.254-.863-1.473-2.993-1.473-2.03 0-2.944 1.118-2.944 2.692 0 1.419 1.166 2.385 2.688 2.385 1.523 0 2.792-.913 3.25-1.675v-1.929zM221.725 47.604v-6.648h2.235v-12.13h-2.185v-6.597h9.541l1.523 3.247c1.317-2.436 2.639-4.516 7.866-4.516v9.136c-4.566 0-7.156 1.165-7.156 5.633v5.227h2.539v6.648h-14.363zM268.216 44.104c-3.76 3.249-7.817 4.414-13.096 4.414-6.294 0-13.399-4.009-13.399-13.754 0-8.322 5.989-13.247 13.652-13.247 6.041 0 10.662 3.095 12.132 7.36.606 1.776 1.167 5.685.101 8.577h-15.988c.305 1.372.965 4.165 5.229 4.165 1.728 0 4.366-.154 7.106-2.438l4.263 4.923zm-8.781-11.673c-.05-1.931-.506-4.063-3.755-4.063-3.098 0-3.808 2.793-3.908 4.063h7.663z"></path></svg>
